<?xml version="1.0" encoding="utf-8"?>
<!-- Generator: Adobe Illustrator 22.1.0, SVG Export Plug-In . SVG Version: 6.00 Build 0)  -->
<svg version="1.1" id="Layer_1" xmlns="http://www.w3.org/2000/svg" xmlns:xlink="http://www.w3.org/1999/xlink" x="0px" y="0px"
	 viewBox="0 0 363 49" style="enable-background:new 0 0 363 49;" xml:space="preserve">
<style type="text/css">
	.st0{fill:#EAEAEA;}
</style>
<g>
	<path class="st0" d="M26,23.4c-0.2,0-0.4,0.3-0.5,1c-0.3,1.2-0.5,2.4-0.8,3.4c-0.3,1-0.7,1.9-1.2,2.6c-0.5,0.7-1.1,1.3-1.8,1.7
		c-0.7,0.4-1.7,0.6-2.8,0.6h-10V1.5h4.6V0.7H0v0.8h4.2v31.2H0v0.8h25c0.9,0,1.4-0.5,1.4-1.6v-7.3C26.4,23.8,26.3,23.4,26,23.4z"/>
	<path class="st0" d="M47,25.8c-0.2,0-0.3,0.3-0.4,0.8c-0.2,0.9-0.4,1.8-0.6,2.6c-0.2,0.8-0.5,1.4-0.9,2c-0.4,0.6-0.8,1-1.4,1.3
		c-0.6,0.3-1.3,0.4-2.1,0.4h-6V20.6h2.9c0.5,0,1,0.1,1.3,0.2c0.3,0.2,0.6,0.4,0.8,0.7c0.2,0.3,0.3,0.7,0.4,1.1
		c0.1,0.4,0.2,0.9,0.3,1.4c0.1,0.3,0.2,0.5,0.3,0.5c0.1,0,0.2-0.2,0.2-0.5v-7.5c0-0.3-0.1-0.4-0.2-0.4c-0.1,0-0.2,0.2-0.3,0.5
		c-0.1,0.5-0.2,1-0.3,1.4c-0.1,0.4-0.2,0.8-0.4,1.1c-0.2,0.3-0.4,0.5-0.8,0.7c-0.3,0.2-0.8,0.2-1.3,0.2h-2.9V9.1h5.6
		c0.8,0,1.5,0.2,2.1,0.6c0.6,0.4,1,0.9,1.4,1.5c0.3,0.6,0.6,1.2,0.8,1.9c0.2,0.7,0.3,1.3,0.3,1.8c0,0.3,0.1,0.5,0.3,0.5
		c0.2,0,0.3-0.2,0.3-0.5V9.4c0-0.6-0.3-0.9-0.9-0.9H28.8v0.6H32v23.7h-3.1v0.6h17.4c0.7,0,1.1-0.4,1.1-1.2v-5.6
		C47.3,26.1,47.2,25.8,47,25.8z"/>
	<path class="st0" d="M62.6,18.9c-0.6-0.2-1.1-0.3-1.6-0.4c-0.5-0.1-1-0.3-1.5-0.4c-0.5-0.1-1.1-0.3-1.6-0.5
		c-0.6-0.2-1.2-0.4-1.9-0.7c-0.8-0.3-1.3-0.8-1.7-1.4c-0.4-0.6-0.6-1.3-0.6-2.2c0-0.8,0.2-1.4,0.5-2c0.3-0.6,0.7-1.1,1.2-1.4
		c0.5-0.4,1.1-0.6,1.7-0.8c0.7-0.2,1.3-0.3,2-0.3c1,0,1.9,0.2,2.7,0.5c0.8,0.3,1.4,0.8,1.9,1.4c0.5,0.6,0.9,1.2,1.2,2
		c0.3,0.7,0.5,1.5,0.6,2.3c0,0.2,0.1,0.4,0.3,0.4c0.2,0,0.3-0.1,0.3-0.4V8.3c0-0.2-0.1-0.4-0.2-0.4c-0.1,0-0.3,0.1-0.4,0.3l-1.1,1.4
		C64,9.4,63.6,9.2,63.2,9c-0.4-0.2-0.8-0.4-1.2-0.5c-0.4-0.1-0.8-0.2-1.3-0.3c-0.5-0.1-1-0.1-1.6-0.1c-1.2,0-2.3,0.2-3.2,0.6
		c-0.9,0.4-1.8,0.9-2.4,1.6c-0.7,0.7-1.2,1.4-1.5,2.3c-0.3,0.9-0.5,1.8-0.5,2.7c0,1.3,0.4,2.5,1.2,3.6c0.8,1.1,2.1,1.9,3.8,2.5
		c0.8,0.3,1.5,0.5,2.1,0.7c0.6,0.2,1.1,0.3,1.6,0.5c0.5,0.2,1,0.3,1.5,0.5c0.5,0.2,1.1,0.4,1.8,0.8c0.8,0.4,1.4,0.9,1.7,1.7
		c0.3,0.7,0.4,1.4,0.4,2.1c0,0.9-0.2,1.7-0.5,2.4c-0.3,0.7-0.8,1.3-1.4,1.8c-0.6,0.5-1.2,0.9-2,1.2c-0.7,0.3-1.5,0.4-2.3,0.4
		c-0.9,0-1.7-0.2-2.6-0.5c-0.8-0.3-1.6-0.7-2.3-1.3c-0.7-0.6-1.3-1.3-1.8-2.1c-0.5-0.8-0.9-1.8-1.2-2.8c-0.1-0.3-0.2-0.5-0.4-0.5
		c-0.2,0-0.3,0.2-0.3,0.5v6.6c0,0.3,0.1,0.5,0.3,0.5c0.1,0,0.3-0.1,0.5-0.4l1.3-1.9c0.3,0.3,0.7,0.6,1.1,0.9
		c0.4,0.3,0.9,0.6,1.4,0.8c0.5,0.2,1.1,0.5,1.7,0.6c0.6,0.2,1.2,0.2,1.9,0.2c1.2,0,2.3-0.2,3.3-0.6c1-0.4,1.9-1,2.6-1.8
		c0.7-0.8,1.3-1.7,1.8-2.7c0.4-1.1,0.6-2.2,0.6-3.4c0-1.7-0.4-3.1-1.2-4.2C65.5,20.2,64.3,19.4,62.6,18.9z"/>
	<path class="st0" d="M89.6,8.5H71.3c-0.5,0-0.7,0.2-0.7,0.6L70,15.6h0.8c0.3-2,0.8-3.6,1.7-4.7c0.9-1.2,1.8-1.7,3-1.7h3.2v23.7
		h-3.2v0.6h9.9v-0.6h-3.2V9.1h3.2c1.1,0,2.1,0.6,3,1.7c0.9,1.2,1.4,2.7,1.7,4.7h0.8l-0.6-6.5C90.3,8.7,90,8.5,89.6,8.5z"/>
	<path class="st0" d="M111.2,25.8c-0.2,0-0.3,0.3-0.4,0.8c-0.2,0.9-0.4,1.8-0.6,2.6c-0.2,0.8-0.5,1.4-0.9,2c-0.4,0.6-0.8,1-1.4,1.3
		c-0.6,0.3-1.3,0.4-2.1,0.4h-6V20.6h2.9c0.5,0,1,0.1,1.3,0.2c0.3,0.2,0.6,0.4,0.8,0.7c0.2,0.3,0.3,0.7,0.4,1.1
		c0.1,0.4,0.2,0.9,0.3,1.4c0.1,0.3,0.2,0.5,0.3,0.5c0.1,0,0.2-0.2,0.2-0.5v-7.5c0-0.3-0.1-0.4-0.2-0.4c-0.1,0-0.2,0.2-0.3,0.5
		c-0.1,0.5-0.2,1-0.3,1.4c-0.1,0.4-0.2,0.8-0.4,1.1c-0.2,0.3-0.4,0.5-0.8,0.7c-0.3,0.2-0.8,0.2-1.3,0.2h-2.9V9.1h5.6
		c0.8,0,1.5,0.2,2.1,0.6c0.6,0.4,1,0.9,1.4,1.5s0.6,1.2,0.8,1.9c0.2,0.7,0.3,1.3,0.3,1.8c0,0.3,0.1,0.5,0.3,0.5
		c0.2,0,0.3-0.2,0.3-0.5V9.4c0-0.6-0.3-0.9-0.9-0.9H93v0.6h3.2v23.7H93v0.6h17.4c0.7,0,1.1-0.4,1.1-1.2v-5.6
		C111.5,26.1,111.4,25.8,111.2,25.8z"/>
	<path class="st0" d="M135.9,32.2c-0.1,0-0.1,0-0.2,0.1c-0.5,0.3-1,0.5-1.7,0.5c-0.8,0-1.3-0.3-1.5-0.9c-0.1-0.2-0.1-0.6-0.2-1
		c0-0.4-0.1-0.9-0.1-1.4c0-0.5,0-1.1,0-1.6c0-0.5-0.1-1.1-0.1-1.6c-0.1-1-0.4-1.8-0.7-2.4c-0.3-0.6-0.8-1.2-1.3-1.6
		c-0.5-0.4-1.1-0.7-1.7-1c-0.6-0.2-1.3-0.5-2.1-0.6c1.9-0.3,3.4-1,4.4-2.1c1-1,1.6-2.3,1.6-3.9c0-1-0.2-1.8-0.6-2.6
		c-0.4-0.8-1-1.4-1.6-1.9c-0.7-0.5-1.5-0.9-2.5-1.2c-0.9-0.3-2-0.4-3-0.4h-10.4v0.6h3.2v23.7h-3.2v0.6h9.9v-0.6H121V20.7h3.1
		c0.4,0,0.8,0.1,1.3,0.2c0.4,0.1,0.9,0.4,1.2,0.8c0.4,0.4,0.7,0.9,1,1.6c0.3,0.7,0.5,1.6,0.6,2.6c0.1,0.6,0.1,1.3,0.1,2
		c0,0.7,0,1.3,0.1,1.9c0.1,0.6,0.2,1.2,0.3,1.7c0.2,0.5,0.4,1,0.8,1.3c0.3,0.3,0.7,0.6,1.1,0.7c0.4,0.1,0.9,0.2,1.4,0.2
		c0.4,0,0.8,0,1.3-0.1c0.4-0.1,0.8-0.2,1.2-0.3c0.4-0.1,0.7-0.3,0.9-0.4c0.3-0.1,0.4-0.3,0.6-0.4c0.1-0.1,0.1-0.1,0.1-0.2
		S136,32.2,135.9,32.2z M124.6,20.1H121v-11h3.7c2.8,0,4.2,1.6,4.2,4.9v1.3C128.8,18.5,127.4,20.1,124.6,20.1z"/>
	<path class="st0" d="M150.6,9.3h4.5v31.1c0,1.8-0.2,3-0.7,3.8c-0.5,0.8-1.3,1.1-2.6,1.1c-0.6,0-1.2-0.1-1.8-0.4
		c-0.6-0.2-1-0.6-1.3-1c0.8,0,1.4-0.2,1.7-0.7c0.4-0.5,0.6-1.1,0.6-1.8c0-0.6-0.2-1-0.5-1.5c-0.4-0.4-0.9-0.7-1.6-0.7
		c-0.7,0-1.3,0.2-1.6,0.7c-0.4,0.5-0.5,1.1-0.5,1.8c0,0.5,0.1,0.9,0.3,1.4c0.2,0.5,0.6,1,1,1.4c0.5,0.4,1,0.8,1.7,1.1
		c0.7,0.3,1.4,0.4,2.3,0.4c5.1,0,7.7-2.5,7.7-7.6V9.3h3.6V8.5h-12.8V9.3z"/>
	<path class="st0" d="M165.4,32.9v0.6h17.4c0.7,0,1.1-0.4,1.1-1.2v-5.6c0-0.6-0.1-0.9-0.3-0.9c-0.2,0-0.3,0.3-0.4,0.8
		c-0.2,0.9-0.4,1.8-0.6,2.6c-0.2,0.8-0.5,1.4-0.9,2c-0.4,0.6-0.8,1-1.4,1.3c-0.6,0.3-1.3,0.4-2.1,0.4h-6V20.6h2.9
		c0.5,0,1,0.1,1.3,0.2c0.3,0.2,0.6,0.4,0.8,0.7c0.2,0.3,0.3,0.7,0.4,1.1c0.1,0.4,0.2,0.9,0.3,1.4c0.1,0.3,0.2,0.5,0.3,0.5
		c0.1,0,0.2-0.2,0.2-0.5v-7.5c0-0.3-0.1-0.4-0.2-0.4c-0.1,0-0.2,0.2-0.3,0.5c-0.1,0.5-0.2,1-0.3,1.4c-0.1,0.4-0.2,0.8-0.4,1.1
		c-0.2,0.3-0.4,0.5-0.8,0.7c-0.3,0.2-0.8,0.2-1.3,0.2h-2.9V9.1h5.6c0.8,0,1.5,0.2,2.1,0.6c0.6,0.4,1,0.9,1.4,1.5s0.6,1.2,0.8,1.9
		c0.2,0.7,0.3,1.3,0.3,1.8c0,0.3,0.1,0.5,0.3,0.5c0.2,0,0.3-0.2,0.3-0.5V9.4c0-0.6-0.3-0.9-0.9-0.9h-16.5v0.6h3.2v23.7H165.4z"/>
	<path class="st0" d="M189.9,32.9h-3.1v0.6h9.9v-0.6h-3.2V20.6h2.9c0.5,0,1,0.1,1.3,0.2c0.3,0.2,0.6,0.4,0.8,0.7
		c0.2,0.3,0.3,0.7,0.4,1.1c0.1,0.4,0.2,0.9,0.3,1.4c0.1,0.3,0.2,0.5,0.3,0.5c0.1,0,0.2-0.2,0.2-0.5v-7.5c0-0.3-0.1-0.4-0.2-0.4
		c-0.1,0-0.2,0.2-0.3,0.5c-0.1,0.5-0.2,1-0.3,1.4c-0.1,0.4-0.2,0.8-0.4,1.1c-0.2,0.3-0.4,0.5-0.8,0.7c-0.3,0.2-0.8,0.2-1.3,0.2h-2.9
		V9.1h5.6c0.8,0,1.5,0.2,2.1,0.6c0.6,0.4,1,0.9,1.4,1.5c0.3,0.6,0.6,1.2,0.8,1.9c0.2,0.7,0.3,1.3,0.3,1.8c0,0.3,0.1,0.5,0.3,0.5
		c0.2,0,0.3-0.2,0.3-0.5V9.4c0-0.6-0.3-0.9-0.9-0.9h-16.5v0.6h3.2V32.9z"/>
	<path class="st0" d="M210.2,32.9h-3.1v0.6h9.9v-0.6h-3.2V20.6h2.9c0.5,0,1,0.1,1.3,0.2c0.3,0.2,0.6,0.4,0.8,0.7
		c0.2,0.3,0.3,0.7,0.4,1.1c0.1,0.4,0.2,0.9,0.3,1.4c0.1,0.3,0.2,0.5,0.3,0.5c0.1,0,0.2-0.2,0.2-0.5v-7.5c0-0.3-0.1-0.4-0.2-0.4
		c-0.1,0-0.2,0.2-0.3,0.5c-0.1,0.5-0.2,1-0.3,1.4c-0.1,0.4-0.2,0.8-0.4,1.1c-0.2,0.3-0.4,0.5-0.8,0.7c-0.3,0.2-0.8,0.2-1.3,0.2h-2.9
		V9.1h5.6c0.8,0,1.5,0.2,2.1,0.6c0.6,0.4,1,0.9,1.4,1.5c0.3,0.6,0.6,1.2,0.8,1.9c0.2,0.7,0.3,1.3,0.3,1.8c0,0.3,0.1,0.5,0.3,0.5
		c0.2,0,0.3-0.2,0.3-0.5V9.4c0-0.6-0.3-0.9-0.9-0.9H207v0.6h3.2V32.9z"/>
	<path class="st0" d="M247,32.9h-3.2V20.7h3.1c0.4,0,0.8,0.1,1.3,0.2s0.9,0.4,1.2,0.8c0.4,0.4,0.7,0.9,1,1.6
		c0.3,0.7,0.5,1.6,0.6,2.6c0.1,0.6,0.1,1.3,0.1,2c0,0.7,0,1.3,0.1,1.9c0.1,0.6,0.2,1.2,0.3,1.7c0.2,0.5,0.4,1,0.8,1.3
		c0.3,0.3,0.7,0.6,1.1,0.7c0.4,0.1,0.9,0.2,1.4,0.2c0.4,0,0.8,0,1.3-0.1c0.4-0.1,0.8-0.2,1.2-0.3c0.4-0.1,0.7-0.3,0.9-0.4
		c0.3-0.1,0.5-0.3,0.6-0.4c0.1-0.1,0.1-0.1,0.1-0.2s0-0.1-0.1-0.1c0,0-0.1,0-0.2,0.1c-0.5,0.3-1,0.5-1.7,0.5c-0.8,0-1.3-0.3-1.5-0.9
		c-0.1-0.2-0.1-0.6-0.2-1c0-0.4-0.1-0.9-0.1-1.4c0-0.5,0-1.1,0-1.6c0-0.5-0.1-1.1-0.1-1.6c-0.1-1-0.4-1.8-0.7-2.4
		c-0.3-0.6-0.8-1.2-1.3-1.6c-0.5-0.4-1.1-0.7-1.7-1c-0.6-0.2-1.3-0.5-2.1-0.6c1.9-0.3,3.4-1,4.4-2.1c1-1,1.6-2.3,1.6-3.9
		c0-1-0.2-1.8-0.6-2.6c-0.4-0.8-1-1.4-1.6-1.9c-0.7-0.5-1.5-0.9-2.5-1.2c-0.9-0.3-2-0.4-3-0.4H237v0.6h3.2v23.7H237v0.6h9.9V32.9z
		 M243.8,9.1h3.7c2.8,0,4.2,1.6,4.2,4.9v1.3c0,3.2-1.4,4.8-4.2,4.8h-3.7V9.1z"/>
	<path class="st0" d="M268.1,32.9h-4.4l2.3-7.2h7.4l2.4,7.2h-3.8v0.6h10.8v-0.6h-3.2l-8.1-24.7h-0.4l-8.1,24.7h-3.2v0.6h8.2V32.9z
		 M269.8,14.5l3.6,10.6h-7L269.8,14.5z"/>
	<polygon class="st0" points="291.3,32.9 288.3,32.9 288.3,9.7 296.6,33.4 297,33.4 305.3,9.6 305.3,32.9 302.3,32.9 302.3,33.4 
		311.8,33.4 311.8,32.9 308.9,32.9 308.9,9.1 311.8,9.1 311.8,8.5 305,8.5 298.4,27.6 291.6,8.5 284.8,8.5 284.8,9.1 287.7,9.1 
		287.7,32.9 284.8,32.9 284.8,33.4 291.3,33.4 	"/>
	<path class="st0" d="M317.8,30.1c1,1.2,2.2,2.2,3.6,2.9c1.4,0.7,2.9,1.1,4.5,1.1c1.6,0,3.1-0.4,4.5-1.1c1.4-0.7,2.6-1.7,3.6-2.9
		c1-1.2,1.9-2.6,2.5-4.2c0.6-1.6,0.9-3.2,0.9-4.9c0-1.7-0.3-3.3-0.9-4.9c-0.6-1.6-1.4-3-2.5-4.2c-1-1.2-2.3-2.2-3.6-2.9
		c-1.4-0.7-2.9-1.1-4.5-1.1c-1.6,0-3.1,0.4-4.5,1.1c-1.4,0.7-2.6,1.7-3.6,2.9c-1,1.2-1.9,2.6-2.5,4.2c-0.6,1.6-0.9,3.2-0.9,4.9
		c0,1.7,0.3,3.3,0.9,4.9C316,27.5,316.8,28.9,317.8,30.1z M319,19.2c0-1.9,0.2-3.6,0.5-4.9c0.3-1.3,0.8-2.4,1.3-3.2
		c0.6-0.8,1.3-1.4,2.2-1.8c0.9-0.4,1.8-0.6,3-0.6c1.1,0,2.1,0.2,3,0.5c0.9,0.3,1.6,0.9,2.2,1.7c0.6,0.8,1,1.9,1.3,3.2
		c0.3,1.3,0.5,3,0.5,5v3.7c0,3.6-0.6,6.2-1.8,8c-1.2,1.7-2.9,2.6-5.1,2.6s-4-0.9-5.1-2.6c-1.2-1.7-1.8-4.4-1.8-8V19.2z"/>
	<path class="st0" d="M341.7,34.1c0.2,0,0.4-0.2,0.6-0.5l1.7-2.5c0.4,0.4,0.9,0.7,1.4,1.1c0.6,0.4,1.2,0.7,1.9,1.1
		c0.7,0.3,1.4,0.6,2.2,0.8c0.8,0.2,1.6,0.3,2.5,0.3c1.6,0,3-0.3,4.3-0.9c1.3-0.6,2.5-1.4,3.4-2.4c1-1,1.7-2.2,2.3-3.6
		c0.6-1.4,0.8-2.9,0.8-4.5c0-2.2-0.5-4-1.5-5.5c-1-1.5-2.6-2.6-4.8-3.2c-0.7-0.2-1.4-0.4-2.1-0.6c-0.6-0.2-1.3-0.3-2-0.5
		c-0.7-0.2-1.4-0.4-2.1-0.7c-0.7-0.2-1.6-0.5-2.5-0.9c-1-0.4-1.8-1-2.3-1.8c-0.5-0.8-0.8-1.8-0.8-2.8c0-1,0.2-1.9,0.6-2.7
		c0.4-0.8,1-1.4,1.6-1.9c0.7-0.5,1.4-0.9,2.3-1.1c0.9-0.2,1.7-0.4,2.6-0.4c1.3,0,2.5,0.2,3.5,0.7c1,0.5,1.8,1.1,2.5,1.8
		c0.7,0.7,1.2,1.6,1.6,2.6c0.4,1,0.7,2,0.8,3c0,0.3,0.2,0.5,0.4,0.5c0.2,0,0.3-0.2,0.3-0.5V0.5c0-0.3-0.1-0.5-0.3-0.5
		c-0.2,0-0.3,0.1-0.5,0.4L359,2.2c-0.6-0.3-1.1-0.6-1.7-0.9c-0.5-0.3-1-0.5-1.6-0.6c-0.5-0.2-1.1-0.3-1.7-0.4
		c-0.6-0.1-1.3-0.1-2.1-0.1c-1.6,0-3,0.3-4.2,0.8c-1.2,0.5-2.3,1.2-3.2,2.1c-0.9,0.9-1.5,1.9-2,3c-0.5,1.1-0.7,2.3-0.7,3.6
		c0,1.7,0.5,3.3,1.6,4.7c1.1,1.4,2.7,2.5,4.9,3.3c1.1,0.4,2,0.7,2.7,0.9c0.7,0.2,1.4,0.4,2.1,0.7c0.6,0.2,1.3,0.4,2,0.7
		c0.7,0.2,1.4,0.6,2.3,1c1.1,0.5,1.8,1.2,2.2,2.2c0.4,0.9,0.6,1.9,0.6,2.8c0,1.2-0.2,2.2-0.7,3.2c-0.5,1-1.1,1.8-1.8,2.4
		c-0.7,0.7-1.6,1.2-2.6,1.5c-1,0.4-2,0.5-3,0.5c-1.2,0-2.3-0.2-3.3-0.6c-1.1-0.4-2.1-1-3-1.7c-0.9-0.7-1.7-1.7-2.4-2.8
		c-0.7-1.1-1.2-2.3-1.5-3.7c-0.1-0.4-0.3-0.6-0.5-0.6c-0.2,0-0.3,0.2-0.3,0.7v8.7C341.3,33.9,341.4,34.1,341.7,34.1z"/>
	<path class="st0" d="M280.6,43.6c0.2-0.3,0.3-0.6,0.4-1c0-0.3,0.1-0.5,0.1-0.7c0-0.8-0.2-1.5-0.5-1.9c-0.3-0.5-0.9-0.7-1.6-0.7
		h-1.7v5.1h1.7c0.3,0,0.6,0,0.8-0.1C280.1,44.2,280.4,43.9,280.6,43.6z"/>
	<polygon class="st0" points="255,39.5 253.9,42.4 256,42.4 	"/>
	<path class="st0" d="M235.5,44.5c0.8,0,1.4-0.3,1.8-0.9c0.4-0.6,0.6-1.2,0.6-2c0-0.8-0.2-1.4-0.6-1.9c-0.4-0.5-1-0.7-1.7-0.7
		c-0.7,0-1.3,0.2-1.8,0.7c-0.5,0.5-0.7,1.2-0.7,2.1c0,0.7,0.2,1.4,0.6,1.9C234,44.3,234.6,44.5,235.5,44.5z"/>
	<path class="st0" d="M211.9,44.5c0.8,0,1.4-0.3,1.8-0.9c0.4-0.6,0.6-1.2,0.6-2c0-0.8-0.2-1.4-0.6-1.9c-0.4-0.5-1-0.7-1.7-0.7
		c-0.7,0-1.3,0.2-1.8,0.7c-0.5,0.5-0.7,1.2-0.7,2.1c0,0.7,0.2,1.4,0.6,1.9C210.4,44.3,211,44.5,211.9,44.5z"/>
	<path class="st0" d="M188.9,41.3c0.3-0.2,0.4-0.5,0.4-0.9c0-0.5-0.2-0.8-0.6-1c-0.2-0.1-0.5-0.1-0.9-0.1H186v2.3h1.9
		C188.3,41.6,188.6,41.5,188.9,41.3z"/>
	<path class="st0" d="M165.7,49H363V35.6H165.7V49z M343.1,42.6c-0.2-0.2-0.6-0.3-1.1-0.4l-0.9-0.2c-0.6-0.1-1-0.3-1.3-0.4
		c-0.4-0.3-0.7-0.7-0.7-1.3c0-0.6,0.2-1.1,0.6-1.5c0.4-0.4,1-0.6,1.8-0.6c0.7,0,1.3,0.2,1.9,0.5c0.5,0.3,0.8,0.9,0.8,1.6h-0.9
		c0-0.4-0.1-0.6-0.3-0.8c-0.3-0.3-0.8-0.5-1.5-0.5c-0.6,0-1,0.1-1.2,0.3c-0.2,0.2-0.4,0.5-0.4,0.8c0,0.3,0.1,0.6,0.4,0.7
		c0.2,0.1,0.6,0.2,1.3,0.4l1,0.2c0.5,0.1,0.8,0.2,1.1,0.4c0.4,0.3,0.7,0.8,0.7,1.4c0,0.7-0.3,1.3-0.8,1.6c-0.6,0.3-1.2,0.5-1.9,0.5
		c-0.9,0-1.5-0.2-2-0.6c-0.5-0.4-0.7-1-0.7-1.7h0.9c0,0.4,0.1,0.7,0.3,0.9c0.3,0.4,0.9,0.7,1.6,0.7c0.4,0,0.7,0,1-0.1
		c0.6-0.2,0.8-0.5,0.8-1C343.5,43.1,343.4,42.8,343.1,42.6z M325.9,38.5h1.3l2,5.7l2-5.7h1.3v6.7h-0.9v-3.9c0-0.1,0-0.4,0-0.7
		c0-0.3,0-0.7,0-1l-2,5.6h-0.9l-2-5.6v0.2c0,0.2,0,0.4,0,0.7c0,0.3,0,0.6,0,0.7v3.9h-0.9V38.5z M315.3,38.5h0.9v5.9h3.5v0.8h-4.4
		V38.5z M307.7,38.5h0.9v6.7h-0.9V38.5z M296.4,38.5h4.8v0.8h-3.9v2h3.4v0.8h-3.4v3h-0.9V38.5z M276.3,38.5h2.8c1,0,1.7,0.3,2.2,1
		c0.5,0.6,0.7,1.3,0.7,2.3c0,0.7-0.1,1.4-0.4,1.9c-0.5,1-1.3,1.5-2.5,1.5h-2.8V38.5z M264.1,38.5h1.1l3.5,5.4v-5.4h0.9v6.7h-1.1
		l-3.6-5.4v5.4h-0.9V38.5z M254.5,38.5h1.1l2.5,6.7h-1l-0.7-2h-2.7l-0.7,2h-1L254.5,38.5z M232.8,39.5c0.6-0.8,1.5-1.2,2.7-1.2
		c1.2,0,2.1,0.4,2.7,1.1c0.5,0.6,0.7,1.3,0.7,2.3c0,1-0.3,1.8-0.8,2.5c-0.6,0.8-1.5,1.2-2.6,1.2c-1.1,0-1.9-0.3-2.5-1
		c-0.5-0.7-0.8-1.5-0.8-2.5C232.1,40.9,232.3,40.2,232.8,39.5z M220.9,38.5h5.6v0.8h-2.3v5.9h-1v-5.9h-2.3V38.5z M209.1,39.5
		c0.6-0.8,1.5-1.2,2.7-1.2c1.2,0,2.1,0.4,2.7,1.1c0.5,0.6,0.7,1.3,0.7,2.3c0,1-0.3,1.8-0.8,2.5c-0.6,0.8-1.5,1.2-2.6,1.2
		c-1.1,0-1.9-0.3-2.5-1c-0.5-0.7-0.8-1.5-0.8-2.5C208.4,40.9,208.7,40.2,209.1,39.5z M196.6,38.5h0.9v2.8h3.6v-2.8h0.9v6.7h-0.9V42
		h-3.6v3.1h-0.9V38.5z M185.1,38.5h3.1c0.6,0,1.1,0.2,1.5,0.5c0.4,0.3,0.6,0.8,0.6,1.4c0,0.5-0.2,1-0.5,1.4
		c-0.3,0.4-0.9,0.6-1.6,0.6H186v2.8h-0.9V38.5z"/>
</g>
</svg>
